<?xml version="1.0" encoding="utf-8"?>
<!DOCTYPE svg PUBLIC "-//W3C//DTD SVG 1.1//EN" "http://www.w3.org/Graphics/SVG/1.1/DTD/svg11.dtd">
<svg style="width:308px;height:308px;" version="1.1" id="图形" xmlns="http://www.w3.org/2000/svg" xmlns:xlink="http://www.w3.org/1999/xlink" x="0px" y="0px" width="12px" height="12px" viewBox="0 0 1024 1024" enable-background="new 0 0 1024 1024" xml:space="preserve">
  <path class="svgpath" data-index="path_0" fill="#E5D58B" d="M845.868485 243.35654c0-0.063445-0.00921-0.11768-0.00921-0.181125-0.035816-0.579191-0.100284-1.159406-0.171915-1.738597-0.00921-0.081864-0.01842-0.171915-0.026606-0.25378-0.36225-2.698458-1.105171-5.270027-2.183735-7.670703 0-0.00921-0.00921-0.026606-0.00921-0.035816-0.542352-1.176802-1.150196-2.326998-1.837858-3.413749-0.081864-0.11768-0.145309-0.23536-0.23536-0.343831-0.289596-0.461511-0.606821-0.924045-0.923022-1.358951-0.12689-0.162706-0.25378-0.325411-0.37146-0.48914-0.243547-0.317225-0.506537-0.633427-0.760317-0.923022-0.190335-0.23536-0.38067-0.452301-0.571005-0.670266-0.181125-0.207731-0.38067-0.398066-0.561795-0.597611-0.207731-0.207731-0.399089-0.425695-0.606821-0.642636L684.873768 75.144444c-4.337795-4.38282-10.097986-7.335059-16.536628-8.087189L668.273694 67.057255c-0.61603-0.072655-10.522658-0.12689-11.166317-0.153496-0.145309-0.00921 8.992815-0.00921 8.856715-0.00921-0.298805-0.00921-0.588401-0.026606-0.896416-0.026606L224.57836 66.867944c-28.54615-0.353041-48.251957 15.875572-46.369074 46.359864l0 797.552571c0 33.635051 15.893992 46.359864 46.369074 46.359864l574.957891 0c34.449603 0 46.376237-15.812127 46.376237-46.359864L845.912487 244.895593C845.912487 244.379846 845.895091 243.863077 845.868485 243.35654zM704.770933 710.462051 319.216787 710.462051c-15.369036 0-27.821649-12.434194-27.821649-27.812439 0-15.369036 12.452613-27.812439 27.821649-27.812439l385.554146 0c15.341407 0 27.829835 12.443403 27.829835 27.812439C732.600769 698.027857 720.11234 710.462051 704.770933 710.462051zM704.770933 565.887304 319.216787 565.887304c-15.369036 0-27.821649-12.443403-27.821649-27.829835 0-15.369036 12.452613-27.811416 27.821649-27.811416l385.554146 0c15.341407 0 27.829835 12.443403 27.829835 27.811416C732.600769 553.443901 720.11234 565.887304 704.770933 565.887304zM704.770933 415.544181 319.216787 415.544181c-15.369036 0-27.821649-12.452613-27.821649-27.829835 0-15.369036 12.452613-27.812439 27.821649-27.812439l385.554146 0c15.341407 0 27.829835 12.443403 27.829835 27.812439C732.600769 403.091568 720.11234 415.544181 704.770933 415.544181zM692.888302 217.074967 692.888302 160.989601l57.154721 56.086389L692.888302 217.07599z" />

</svg>
